<svg version="1.1" id="Layer_1" xmlns="http://www.w3.org/2000/svg" xmlns:xlink="http://www.w3.org/1999/xlink" x="0px" y="0px"
	 width="100%" viewBox="0 0 512 512" enable-background="new 0 0 512 512" xml:space="preserve">
<path fill="#000000" opacity="1.000000" stroke="none" 
	d="
M513.000000,289.000000 
	C513.000000,363.593719 513.000000,438.187408 513.000000,513.000000 
	C438.645905,513.000000 364.291626,513.000000 289.322449,512.586243 
	C289.213806,511.802429 289.680176,511.189484 290.232178,511.099091 
	C297.147675,509.966431 304.075562,508.909485 311.393799,507.895508 
	C320.538544,505.343567 329.289825,502.729279 338.433167,500.066162 
	C346.564209,497.044037 354.303223,494.070679 362.406555,491.045593 
	C369.883759,487.344940 376.996613,483.696014 384.425659,479.901672 
	C395.615540,472.260101 406.589020,464.903656 417.337646,457.232208 
	C430.562653,447.793274 442.391754,436.654816 452.304352,423.888763 
	C462.483765,410.778961 471.377258,396.670685 480.993561,382.676514 
	C484.451752,375.600616 487.749847,368.847565 491.362518,361.898987 
	C494.489594,353.815887 497.302063,345.928375 500.429993,337.841400 
	C503.108246,328.761444 505.470978,319.880951 507.903381,310.591187 
	C508.984131,303.902863 509.934357,297.612701 511.076080,291.357513 
	C511.235565,290.483734 512.335449,289.781616 513.000000,289.000000 
z"/>
<path fill="#000000" opacity="1.000000" stroke="none" 
	d="
M305.000000,0.999999 
	C374.263062,1.000000 443.526123,1.000000 513.000000,1.000000 
	C513.000000,75.354095 513.000000,149.708389 512.596436,224.693192 
	C511.750702,222.882446 511.308502,220.441208 510.795837,217.606384 
	C508.857208,209.130127 506.989044,201.047470 505.068848,192.559265 
	C502.299194,183.115707 499.581604,174.077698 496.837860,164.677338 
	C493.246216,156.863052 489.680695,149.411118 486.056274,141.594330 
	C482.015411,134.451172 478.033447,127.672859 474.018890,120.536774 
	C470.601898,115.118889 467.217529,110.058762 463.802612,104.663834 
	C459.196533,98.848022 454.621033,93.367004 449.971313,87.658585 
	C449.708893,87.139534 449.441437,86.984795 448.958252,86.656746 
	C444.226349,81.535812 439.630890,76.725090 434.898804,71.604996 
	C432.191528,69.161781 429.620880,67.027939 426.915955,64.583435 
	C423.231598,61.501926 419.681488,58.731094 415.988831,55.640060 
	C411.268921,52.197163 406.691528,49.074463 401.970062,45.630806 
	C397.902557,42.828098 393.979187,40.346348 389.918243,37.547134 
	C386.853699,35.538834 383.926727,33.847996 380.687195,32.012444 
	C378.866730,30.957441 377.358856,30.047146 375.865906,28.763481 
	C371.277191,26.236570 366.673523,24.083027 361.924683,21.593416 
	C345.034485,13.596581 327.887390,7.166226 309.687317,3.810682 
	C308.009186,3.501285 306.557068,1.966036 305.000000,0.999999 
z"/>
<path fill="#000000" opacity="1.000000" stroke="none" 
	d="
M225.000000,513.000000 
	C150.408829,513.000000 75.817665,513.000000 1.000000,513.000000 
	C1.000000,443.645935 1.000000,374.291626 1.351838,304.168823 
	C3.134914,308.617737 4.611349,313.823242 5.988804,319.054840 
	C9.901284,333.914459 14.499907,348.515564 21.961725,362.383057 
	C22.310638,363.147888 22.627407,363.599579 22.968815,364.434387 
	C24.654362,367.923523 26.315268,371.029572 27.970675,374.498840 
	C30.617311,379.292603 33.269444,383.723114 35.957970,388.367615 
	C35.994358,388.581635 36.137066,388.991699 36.148071,389.325134 
	C37.078674,390.823364 37.998268,391.988220 38.952805,393.366211 
	C38.987747,393.579407 39.122181,393.990021 39.106518,394.295715 
	C39.703880,395.115601 40.316906,395.629791 40.955833,396.493896 
	C42.634945,398.943573 44.288158,401.043304 45.957367,403.495544 
	C49.299900,407.941315 52.626431,412.034576 55.977798,416.475891 
	C58.986889,420.252869 61.971149,423.681793 65.085907,427.416565 
	C67.111214,429.828278 69.006027,431.934143 70.991470,434.287354 
	C71.373672,434.712463 71.665230,434.890289 71.963806,435.049347 
	C71.970833,435.030609 71.942131,435.067230 72.067719,435.377289 
	C77.426971,440.473633 82.660622,445.259949 88.032806,450.362061 
	C93.410156,454.798096 98.648972,458.918335 103.981552,463.281006 
	C104.376289,463.624176 104.677269,463.724884 105.218964,463.905396 
	C105.623802,464.025757 105.787926,464.066315 106.089531,464.418884 
	C110.861305,467.951843 115.495598,471.172760 120.404060,474.648987 
	C126.333900,477.897522 131.989578,480.890747 137.821884,484.154114 
	C141.453293,486.083801 144.908066,487.743317 148.628418,489.656616 
	C152.929123,491.551453 156.964279,493.192474 161.331360,495.000854 
	C166.428436,496.817169 171.193573,498.466125 176.154602,500.434052 
	C182.537857,502.441711 188.725204,504.130432 195.251053,505.901794 
	C200.709137,507.043091 205.828720,508.101685 211.175552,509.496277 
	C215.268478,510.165680 219.134171,510.499084 223.380707,510.915405 
	C224.174377,511.665558 224.587189,512.332764 225.000000,513.000000 
z"/>
<path fill="#000000" opacity="1.000000" stroke="none" 
	d="
M1.000003,204.000000 
	C1.000000,136.406479 1.000000,68.812958 1.000000,1.000000 
	C68.020737,1.000000 135.041702,1.000000 202.829712,1.345510 
	C203.106888,2.112980 202.682434,2.759407 202.117615,2.923932 
	C189.350555,6.642803 176.207916,9.390495 163.882477,14.224388 
	C149.465912,19.878407 135.237823,26.453920 121.897835,34.282372 
	C109.684013,41.449940 98.026405,49.995285 87.460594,59.430584 
	C74.717552,70.810158 62.413826,82.984085 51.694134,96.248032 
	C39.188427,111.721909 28.871025,128.834625 20.826323,147.284271 
	C13.680645,163.672104 7.461413,180.248825 3.901841,197.797226 
	C3.460793,199.971573 1.992365,201.937500 1.000003,204.000000 
z"/>
<path fill="#FCC332" opacity="1.000000" stroke="none" 
	d="
M1.000002,257.000000 
	C1.000000,250.312363 1.000000,243.624710 1.248423,236.155746 
	C1.753053,232.915527 2.009259,230.456650 2.617579,227.990280 
	C5.060818,226.740753 7.521502,225.868912 9.189878,224.203400 
	C80.970123,152.546768 152.691391,80.831024 224.330872,9.033691 
	C226.068039,7.292689 226.798584,4.547284 228.416626,2.182398 
	C231.223099,1.729634 233.611542,1.364818 236.000000,1.000001 
	C242.687637,1.000000 249.375290,1.000000 256.497253,1.344563 
	C255.929153,2.984660 255.054825,4.408200 253.906097,5.557478 
	C171.097687,88.405968 88.270683,171.235901 5.407820,254.029938 
	C4.177560,255.259171 2.479658,256.020386 1.000002,257.000000 
z"/>
<path fill="#FCB939" opacity="1.000000" stroke="none" 
	d="
M1.000002,257.464661 
	C2.479658,256.020386 4.177560,255.259171 5.407820,254.029938 
	C88.270683,171.235901 171.097687,88.405968 253.906097,5.557478 
	C255.054825,4.408200 255.929153,2.984660 256.965759,1.344563 
	C261.356903,1.000000 265.713806,1.000000 270.754150,1.262513 
	C272.556763,1.977669 273.675934,2.430311 274.795105,2.882953 
	C274.371887,2.645623 273.948669,2.408293 273.525452,2.170962 
	C182.988922,92.707504 92.452393,183.244049 2.197417,273.499023 
	C2.105523,273.307251 1.552760,272.153625 0.999999,271.000000 
	C1.000000,266.643097 1.000000,262.286194 1.000002,257.464661 
z"/>
<path fill="#FDB041" opacity="1.000000" stroke="none" 
	d="
M0.999999,271.437500 
	C1.552760,272.153625 2.105523,273.307251 2.197417,273.499023 
	C92.452393,183.244049 182.988922,92.707504 273.525452,2.170962 
	C273.948669,2.408293 274.371887,2.645623 274.795105,2.882953 
	C273.675934,2.430311 272.556763,1.977669 271.218781,1.262513 
	C273.041656,1.000000 275.083344,1.000000 277.876434,1.248261 
	C282.750427,2.055786 286.872955,2.615050 290.953979,3.513583 
	C289.368683,5.974789 288.075043,8.346130 286.244263,10.181841 
	C249.673492,46.851379 213.026810,83.445229 176.469574,120.128212 
	C174.944382,121.658630 174.137329,123.904701 172.660751,125.966927 
	C149.625748,134.602615 134.182083,150.287674 125.465469,173.002411 
	C123.385933,174.195633 121.424301,175.147568 119.965225,176.603210 
	C82.917862,213.563583 45.937038,250.590683 8.870139,287.531403 
	C7.339865,289.056427 5.089409,289.858856 3.077687,290.589844 
	C2.320591,286.121185 1.660294,282.060577 0.999999,278.000000 
	C1.000000,275.958344 1.000000,273.916656 0.999999,271.437500 
z"/>
<path fill="#911CBA" opacity="1.000000" stroke="none" 
	d="
M513.000000,265.000000 
	C513.000000,271.687653 513.000000,278.375275 512.634766,285.533691 
	C510.761719,286.920959 508.995972,287.579346 507.782959,288.791016 
	C434.690002,361.801666 361.636017,434.851349 288.642639,507.961578 
	C287.363159,509.243073 286.863525,511.303192 286.000000,513.000000 
	C279.312347,513.000000 272.624725,513.000000 265.502777,512.655396 
	C266.069916,511.016205 266.943268,509.593536 268.091064,508.445129 
	C348.234833,428.261169 428.397186,348.095764 508.595581,267.966431 
	C509.824707,266.738403 511.521484,265.978424 513.000000,265.000000 
z"/>
<path fill="#881CBF" opacity="1.000000" stroke="none" 
	d="
M286.375000,513.000000 
	C286.863525,511.303192 287.363159,509.243073 288.642639,507.961578 
	C361.636017,434.851349 434.690002,361.801666 507.782959,288.791016 
	C508.995972,287.579346 510.761719,286.920959 512.634766,286.002197 
	C513.000000,286.750000 513.000000,287.500000 513.000000,288.625000 
	C512.335449,289.781616 511.235565,290.483734 511.076080,291.357513 
	C509.934357,297.612701 508.984131,303.902863 507.562988,310.633514 
	C505.265289,312.393585 503.125671,313.449738 501.526306,315.046906 
	C439.279968,377.207550 377.073761,439.408417 314.928284,501.669891 
	C313.247650,503.353699 312.293335,505.762451 311.000305,507.833130 
	C304.075562,508.909485 297.147675,509.966431 290.232178,511.099091 
	C289.680176,511.189484 289.213806,511.802429 288.853821,512.586243 
	C288.250000,513.000000 287.500000,513.000000 286.375000,513.000000 
z"/>
<path fill="#981CB5" opacity="1.000000" stroke="none" 
	d="
M513.000000,264.533142 
	C511.521484,265.978424 509.824707,266.738403 508.595581,267.966431 
	C428.397186,348.095764 348.234833,428.261169 268.091064,508.445129 
	C266.943268,509.593536 266.069916,511.016205 265.034241,512.655396 
	C259.977905,513.000000 254.955811,513.000000 249.501099,512.655457 
	C250.070526,511.015686 250.944458,509.592407 252.092834,508.443481 
	C337.568939,422.927399 423.063660,337.429901 508.594055,251.968094 
	C509.823639,250.739471 511.520966,249.978958 513.000000,249.000000 
	C513.000000,254.022095 513.000000,259.044189 513.000000,264.533142 
z"/>
<path fill="#9E1CB1" opacity="1.000000" stroke="none" 
	d="
M513.000000,248.545883 
	C511.520966,249.978958 509.823639,250.739471 508.594055,251.968094 
	C423.063660,337.429901 337.568939,422.927399 252.092834,508.443481 
	C250.944458,509.592407 250.070526,511.015686 249.034241,512.655457 
	C245.969406,513.000000 242.938812,513.000000 239.488373,512.655457 
	C240.071121,511.015198 240.945587,509.591431 242.094528,508.441956 
	C330.902985,419.593689 419.730042,330.763947 508.592590,241.969772 
	C509.822693,240.740616 511.520477,239.979538 513.000000,239.000000 
	C513.000000,242.030594 513.000000,245.061188 513.000000,248.545883 
z"/>
<path fill="#A01CB0" opacity="1.000000" stroke="none" 
	d="
M513.000000,238.562500 
	C511.520477,239.979538 509.822693,240.740616 508.592590,241.969772 
	C419.730042,330.763947 330.902985,419.593689 242.094528,508.441956 
	C240.945587,509.591431 240.071121,511.015198 239.034271,512.655457 
	C236.958328,513.000000 234.916672,513.000000 232.438751,512.634766 
	C233.272263,510.409058 234.285538,508.292755 235.849136,506.725494 
	C276.671417,465.808838 317.571747,424.969971 358.356537,384.016022 
	C360.335876,382.028442 361.386169,379.115692 363.045837,376.365295 
	C367.687256,371.685150 372.151917,367.273468 376.992279,362.877747 
	C379.660706,361.347046 382.275482,360.123413 384.198700,358.206085 
	C425.129700,317.400452 465.968658,276.502441 506.904236,235.701447 
	C508.540466,234.070602 510.950500,233.216187 513.000000,232.000000 
	C513.000000,234.041672 513.000000,236.083328 513.000000,238.562500 
z"/>
<path fill="#A41DAE" opacity="1.000000" stroke="none" 
	d="
M513.000000,231.562500 
	C510.950500,233.216187 508.540466,234.070602 506.904236,235.701447 
	C465.968658,276.502441 425.129700,317.400452 384.198700,358.206085 
	C382.275482,360.123413 379.660706,361.347046 377.126831,362.551483 
	C383.246735,353.719971 387.357178,344.173676 390.477051,333.959351 
	C392.942688,332.382690 395.318085,331.101379 397.149780,329.274841 
	C433.177826,293.347565 469.128326,257.342499 505.170502,221.429459 
	C506.694763,219.910629 508.951050,219.126404 510.866333,217.999969 
	C511.308502,220.441208 511.750702,222.882446 512.596436,225.161850 
	C513.000000,227.041672 513.000000,229.083328 513.000000,231.562500 
z"/>
<path fill="#A41DAE" opacity="1.000000" stroke="none" 
	d="
M362.869080,376.633728 
	C361.386169,379.115692 360.335876,382.028442 358.356537,384.016022 
	C317.571747,424.969971 276.671417,465.808838 235.849136,506.725494 
	C234.285538,508.292755 233.272263,510.409058 232.001251,512.634766 
	C229.958328,513.000000 227.916672,513.000000 225.437500,513.000000 
	C224.587189,512.332764 224.174377,511.665558 223.386200,510.561462 
	C224.189957,508.400360 225.132538,506.440125 226.582825,504.986359 
	C263.555481,467.926178 300.595123,430.932770 337.548523,393.853455 
	C339.069397,392.327454 339.868317,390.081879 341.325195,387.998108 
	C348.720886,384.094360 355.794952,380.364044 362.869080,376.633728 
z"/>
<path fill="#FFFFFC" opacity="1.000000" stroke="none" 
	d="
M235.531342,1.000001 
	C233.611542,1.364818 231.223099,1.729634 228.018951,2.140984 
	C216.436035,4.270344 205.668793,6.353169 194.490479,8.452692 
	C181.176041,12.857971 168.272705,17.246552 155.054810,21.758366 
	C92.981873,49.299934 48.488220,93.909920 21.211889,156.119232 
	C16.840490,169.239548 12.625661,182.060852 8.264847,195.213470 
	C6.167730,206.362442 4.216599,217.180099 2.265467,227.997757 
	C2.009259,230.456650 1.753053,232.915527 1.248423,235.687210 
	C1.000000,225.645767 1.000000,215.291550 1.000003,204.468658 
	C1.992365,201.937500 3.460793,199.971573 3.901841,197.797226 
	C7.461413,180.248825 13.680645,163.672104 20.826323,147.284271 
	C28.871025,128.834625 39.188427,111.721909 51.694134,96.248032 
	C62.413826,82.984085 74.717552,70.810158 87.460594,59.430584 
	C98.026405,49.995285 109.684013,41.449940 121.897835,34.282372 
	C135.237823,26.453920 149.465912,19.878407 163.882477,14.224388 
	C176.207916,9.390495 189.350555,6.642803 202.117615,2.923932 
	C202.682434,2.759407 203.106888,2.112980 203.298370,1.345510 
	C213.687561,1.000000 224.375122,1.000000 235.531342,1.000001 
z"/>
<path fill="#FFFDFD" opacity="1.000000" stroke="none" 
	d="
M290.995514,3.174315 
	C286.872955,2.615050 282.750427,2.055786 278.313934,1.248261 
	C286.687561,1.000000 295.375122,1.000000 304.531342,0.999999 
	C306.557068,1.966036 308.009186,3.501285 309.687317,3.810682 
	C327.887390,7.166226 345.034485,13.596581 361.903625,21.615858 
	C362.027771,21.974369 361.987122,22.020527 361.631439,22.165493 
	C360.520203,22.201254 359.764648,22.092049 358.800476,21.697809 
	C354.727478,19.974766 350.863068,18.536758 346.698883,16.891863 
	C342.263214,15.248873 338.127319,13.812771 333.614868,12.244759 
	C328.491486,10.815419 323.744690,9.517990 318.605957,8.131083 
	C313.808655,7.100329 309.403320,6.159051 304.581299,5.136600 
	C299.774963,4.428390 295.385223,3.801352 290.995514,3.174315 
z"/>
<path fill="#FFFDFD" opacity="1.000000" stroke="none" 
	d="
M0.999999,278.468658 
	C1.660294,282.060577 2.320591,286.121185 3.017075,291.011353 
	C3.775721,296.226349 4.498180,300.611725 5.185478,305.390137 
	C6.175379,310.188385 7.200442,314.593628 8.212652,319.378021 
	C9.590054,324.502136 10.980310,329.247070 12.447474,334.339844 
	C14.047554,338.790833 15.570729,342.894043 17.094227,347.369263 
	C18.723438,351.496124 20.352327,355.251007 22.009563,359.387451 
	C22.032118,360.508423 22.026329,361.247833 21.996838,362.006836 
	C21.973137,362.026459 21.929579,362.069885 21.929579,362.069885 
	C14.499907,348.515564 9.901284,333.914459 5.988804,319.054840 
	C4.611349,313.823242 3.134914,308.617737 1.351838,303.700134 
	C1.000000,295.645782 1.000000,287.291534 0.999999,278.468658 
z"/>
<path fill="#801CC5" opacity="1.000000" stroke="none" 
	d="
M311.393799,507.895508 
	C312.293335,505.762451 313.247650,503.353699 314.928284,501.669891 
	C377.073761,439.408417 439.279968,377.207550 501.526306,315.046906 
	C503.125671,313.449738 505.265289,312.393585 507.493347,311.042786 
	C505.470978,319.880951 503.108246,328.761444 500.077148,337.859192 
	C498.103424,339.053528 496.655060,339.887482 495.513245,341.028259 
	C443.945587,392.548401 392.399109,444.089752 340.895416,495.673828 
	C339.680267,496.890900 338.980988,498.623047 338.041077,500.114929 
	C329.289825,502.729279 320.538544,505.343567 311.393799,507.895508 
z"/>
<path fill="#781CC9" opacity="1.000000" stroke="none" 
	d="
M338.433136,500.066162 
	C338.980988,498.623047 339.680267,496.890900 340.895416,495.673828 
	C392.399109,444.089752 443.945587,392.548401 495.513245,341.028259 
	C496.655060,339.887482 498.103424,339.053528 499.761658,338.058655 
	C497.302063,345.928375 494.489594,353.815887 491.178650,361.642029 
	C489.475708,362.198303 488.015747,362.560028 487.103424,363.470490 
	C446.212494,404.276581 405.357819,445.119049 364.576721,486.034821 
	C363.311920,487.303772 362.868561,489.391388 362.042236,491.097351 
	C354.303223,494.070679 346.564209,497.044037 338.433136,500.066162 
z"/>
<path fill="#741CCC" opacity="1.000000" stroke="none" 
	d="
M362.406586,491.045593 
	C362.868561,489.391388 363.311920,487.303772 364.576721,486.034821 
	C405.357819,445.119049 446.212494,404.276581 487.103424,363.470490 
	C488.015747,362.560028 489.475708,362.198303 490.864075,361.837585 
	C487.749847,368.847565 484.451752,375.600616 480.639679,382.682159 
	C478.517700,384.073303 476.674103,384.899658 475.336365,386.233307 
	C445.653809,415.825165 416.011505,445.457520 386.446136,475.166321 
	C385.245148,476.373169 384.869598,478.401459 384.109497,480.047058 
	C376.996613,483.696014 369.883759,487.344940 362.406586,491.045593 
z"/>
<path fill="#701CCF" opacity="1.000000" stroke="none" 
	d="
M384.425629,479.901672 
	C384.869598,478.401459 385.245148,476.373169 386.446136,475.166321 
	C416.011505,445.457520 445.653809,415.825165 475.336365,386.233307 
	C476.674103,384.899658 478.517700,384.073303 480.479584,383.005005 
	C471.377258,396.670685 462.483765,410.778961 452.304352,423.888763 
	C442.391754,436.654816 430.562653,447.793274 417.337646,457.232208 
	C406.589020,464.903656 395.615540,472.260101 384.425629,479.901672 
z"/>
<path fill="#BC1C9E" opacity="1.000000" stroke="none" 
	d="
M496.864014,165.039703 
	C499.581604,174.077698 502.299194,183.115707 504.716003,192.598373 
	C502.877502,194.261246 501.201477,195.340897 499.822357,196.717896 
	C465.586273,230.902328 431.390472,265.127167 397.140656,299.297821 
	C395.673553,300.761536 393.758453,301.776154 391.966248,302.537933 
	C391.937622,290.383911 391.994751,278.691956 392.393005,266.963226 
	C394.256592,265.683960 395.900085,264.562744 397.283661,263.181213 
	C428.795624,231.715408 460.269745,200.211716 491.797791,168.762024 
	C493.264648,167.298798 495.165344,166.270538 496.864014,165.039703 
z"/>
<path fill="#AE1CA7" opacity="1.000000" stroke="none" 
	d="
M392.052063,303.000000 
	C393.758453,301.776154 395.673553,300.761536 397.140656,299.297821 
	C431.390472,265.127167 465.586273,230.902328 499.822357,196.717896 
	C501.201477,195.340897 502.877502,194.261246 504.768036,193.003937 
	C506.989044,201.047470 508.857208,209.130127 510.795837,217.606384 
	C508.951050,219.126404 506.694763,219.910629 505.170502,221.429459 
	C469.128326,257.342499 433.177826,293.347565 397.149780,329.274841 
	C395.318085,331.101379 392.942688,332.382690 390.453613,333.548279 
	C390.741852,323.119110 391.396942,313.059570 392.052063,303.000000 
z"/>
<path fill="#CB1C95" opacity="1.000000" stroke="none" 
	d="
M496.837860,164.677338 
	C495.165344,166.270538 493.264648,167.298798 491.797791,168.762024 
	C460.269745,200.211716 428.795624,231.715408 397.283661,263.181213 
	C395.900085,264.562744 394.256592,265.683960 392.307678,266.501099 
	C391.938141,255.050354 391.995148,244.024994 392.393280,232.962921 
	C394.258484,231.682007 395.903320,230.558777 397.288788,229.175720 
	C425.192230,201.319962 453.054077,173.422485 480.979034,145.588303 
	C482.442688,144.129410 484.391968,143.157700 486.115173,141.959183 
	C489.680695,149.411118 493.246216,156.863052 496.837860,164.677338 
z"/>
<path fill="#D81C8D" opacity="1.000000" stroke="none" 
	d="
M486.056274,141.594330 
	C484.391968,143.157700 482.442688,144.129410 480.979034,145.588303 
	C453.054077,173.422485 425.192230,201.319962 397.288788,229.175720 
	C395.903320,230.558777 394.258484,231.682007 392.308197,232.500763 
	C391.938660,221.716919 391.995300,211.358490 392.393097,200.963287 
	C394.258026,199.682571 395.901398,198.558594 397.287506,197.176590 
	C415.779449,178.738724 434.215363,160.244644 452.710510,141.809952 
	C459.764832,134.778656 466.934387,127.862930 474.051453,120.894547 
	C478.033447,127.672859 482.015411,134.451172 486.056274,141.594330 
z"/>
<path fill="#E41C85" opacity="1.000000" stroke="none" 
	d="
M474.018860,120.536774 
	C466.934387,127.862930 459.764832,134.778656 452.710510,141.809952 
	C434.215363,160.244644 415.779449,178.738724 397.287506,197.176590 
	C395.901398,198.558594 394.258026,199.682571 392.308228,200.510864 
	C391.312866,193.402771 390.743469,186.710281 390.510101,179.968658 
	C396.231934,172.612808 401.617767,165.306091 407.368530,157.995544 
	C409.471802,156.845078 411.460358,155.950790 412.909851,154.513000 
	C428.358307,139.189102 443.704681,123.762306 459.136627,108.421593 
	C460.494476,107.071739 462.258026,106.129959 463.833130,104.998642 
	C467.217529,110.058762 470.601898,115.118889 474.018860,120.536774 
z"/>
<path fill="#FF5276" opacity="1.000000" stroke="none" 
	d="
M402.114166,45.951767 
	C406.691528,49.074463 411.268921,52.197163 415.635742,55.680908 
	C414.357605,56.787384 413.150665,57.393139 412.242889,58.298729 
	C390.604889,79.884094 368.986694,101.489380 347.422852,123.148697 
	C346.321472,124.254929 345.736664,125.875443 344.540009,127.166397 
	C338.780731,125.656898 333.392822,124.237511 328.004089,122.447556 
	C329.082703,120.137573 329.791687,117.830353 331.297211,116.313988 
	C353.581909,93.868553 375.968018,71.523796 398.349640,49.174717 
	C399.515137,48.010921 400.855316,47.022072 402.114166,45.951767 
z"/>
<path fill="#FC3284" opacity="1.000000" stroke="none" 
	d="
M435.035431,71.914368 
	C439.630890,76.725090 444.226349,81.535812 448.586975,86.669800 
	C446.602936,88.127228 444.590973,88.997086 443.144043,90.435379 
	C423.321747,110.139648 403.604401,129.949524 383.760803,149.632217 
	C382.238678,151.142029 379.961121,151.890274 377.754944,152.810699 
	C374.595856,149.224350 371.716553,145.819794 368.973877,142.081818 
	C370.339966,140.399216 371.518036,138.998703 372.806641,137.708618 
	C392.450439,118.042702 412.152191,98.434181 431.686035,78.659775 
	C433.361572,76.963585 433.944794,74.188354 435.035431,71.914368 
z"/>
<path fill="#FF457B" opacity="1.000000" stroke="none" 
	d="
M344.911377,127.256500 
	C345.736664,125.875443 346.321472,124.254929 347.422852,123.148697 
	C368.986694,101.489380 390.604889,79.884094 412.242889,58.298729 
	C413.150665,57.393139 414.357605,56.787384 415.778290,56.001106 
	C419.681488,58.731094 423.231598,61.501926 426.771484,64.891541 
	C405.482025,86.865631 384.194672,108.212868 362.940796,129.593445 
	C361.434143,131.109100 360.174164,132.869980 358.473206,134.365479 
	C353.735077,131.894913 349.323212,129.575714 344.911377,127.256500 
z"/>
<path fill="#FF5F71" opacity="1.000000" stroke="none" 
	d="
M401.970062,45.630810 
	C400.855316,47.022072 399.515137,48.010921 398.349640,49.174717 
	C375.968018,71.523796 353.581909,93.868553 331.297211,116.313988 
	C329.791687,117.830353 329.082703,120.137573 327.581207,122.491280 
	C321.439697,122.587051 315.720276,122.268532 310.005005,121.587921 
	C311.165863,119.490852 312.073059,117.507439 313.516418,116.057907 
	C337.793121,91.677399 362.150269,67.377014 386.431458,43.000969 
	C387.889221,41.537518 388.858948,39.587955 390.055786,37.864594 
	C393.979187,40.346348 397.902557,42.828098 401.970062,45.630810 
z"/>
<path fill="#FF7069" opacity="1.000000" stroke="none" 
	d="
M375.850952,29.136848 
	C377.358856,30.047146 378.866730,30.957441 380.645660,32.346176 
	C379.654297,34.339890 378.501129,35.964214 377.113373,37.354317 
	C350.650787,63.860653 324.149017,90.327904 297.707123,116.854797 
	C296.242279,118.324326 295.226044,120.240990 293.539856,122.025391 
	C288.386536,122.051407 283.694366,122.001572 279.037903,121.611061 
	C280.315613,119.747086 281.435852,118.102325 282.817413,116.718399 
	C310.765503,88.722412 338.763031,60.775730 366.662140,32.731136 
	C368.171204,31.214207 368.906189,28.927242 370.350647,27.036755 
	C372.416840,27.762138 374.133911,28.449492 375.850952,29.136848 
z"/>
<path fill="#FF686D" opacity="1.000000" stroke="none" 
	d="
M294.001007,121.949539 
	C295.226044,120.240990 296.242279,118.324326 297.707123,116.854797 
	C324.149017,90.327904 350.650787,63.860653 377.113373,37.354317 
	C378.501129,35.964214 379.654297,34.339890 380.958191,32.490883 
	C383.926727,33.847996 386.853699,35.538834 389.918243,37.547131 
	C388.858948,39.587955 387.889221,41.537518 386.431458,43.000969 
	C362.150269,67.377014 337.793121,91.677399 313.516418,116.057907 
	C312.073059,117.507439 311.165863,119.490852 309.543335,121.665207 
	C304.052002,122.052902 299.026489,122.001228 294.001007,121.949539 
z"/>
<path fill="#FF397F" opacity="1.000000" stroke="none" 
	d="
M358.799469,134.516830 
	C360.174164,132.869980 361.434143,131.109100 362.940796,129.593445 
	C384.194672,108.212868 405.482025,86.865631 426.905762,65.202209 
	C429.620880,67.027939 432.191528,69.161781 434.898804,71.604996 
	C433.944794,74.188354 433.361572,76.963585 431.686035,78.659775 
	C412.152191,98.434181 392.450439,118.042702 372.806641,137.708618 
	C371.518036,138.998703 370.339966,140.399216 368.668213,141.918121 
	C365.083801,139.564194 361.941620,137.040512 358.799469,134.516830 
z"/>
<path fill="#F53288" opacity="1.000000" stroke="none" 
	d="
M378.034668,152.992523 
	C379.961121,151.890274 382.238678,151.142029 383.760803,149.632217 
	C403.604401,129.949524 423.321747,110.139648 443.144043,90.435379 
	C444.590973,88.997086 446.602936,88.127228 448.723450,86.980019 
	C449.441437,86.984795 449.708893,87.139534 449.832092,87.985458 
	C443.513092,99.027130 437.259155,109.514519 430.652252,120.035736 
	C428.291138,121.454811 426.026154,122.579788 424.316132,124.267189 
	C412.422028,136.003784 400.665466,147.879684 388.796356,159.641861 
	C387.446350,160.979721 385.671906,161.889252 383.858521,162.742920 
	C381.760101,159.323120 379.897400,156.157822 378.034668,152.992523 
z"/>
<path fill="#ED1C7F" opacity="1.000000" stroke="none" 
	d="
M431.005249,120.001907 
	C437.259155,109.514519 443.513092,99.027130 449.906250,88.212860 
	C454.621033,93.367004 459.196533,98.848022 463.802582,104.663841 
	C462.258026,106.129959 460.494476,107.071739 459.136627,108.421593 
	C443.704681,123.762306 428.358307,139.189102 412.909851,154.513000 
	C411.460358,155.950790 409.471802,156.845078 407.515472,157.690399 
	C408.239105,156.041718 409.239655,154.731339 410.113220,153.341110 
	C417.090790,142.236572 424.044312,131.116928 431.005249,120.001907 
z"/>
<path fill="#FFFDFD" opacity="1.000000" stroke="none" 
	d="
M375.865906,28.763479 
	C374.133911,28.449492 372.416840,27.762138 370.147827,26.757484 
	C367.059631,24.966965 364.523376,23.493746 361.987122,22.020527 
	C361.987122,22.020527 362.027771,21.974369 362.048798,21.951927 
	C366.673523,24.083027 371.277191,26.236570 375.865906,28.763479 
z"/>
<path fill="#B91CA0" opacity="1.000000" stroke="none" 
	d="
M194.912537,505.819122 
	C188.725204,504.130432 182.537857,502.441711 176.195786,500.081879 
	C177.260025,497.874573 178.341507,496.201111 179.718094,494.822296 
	C212.237244,462.251312 244.797592,429.721466 277.302490,397.136322 
	C278.765015,395.670197 279.777771,393.755463 281.462036,391.963837 
	C289.616058,391.934967 297.308044,391.991913 304.963318,392.390167 
	C303.681793,394.256866 302.558655,395.903778 301.174408,397.289917 
	C267.056915,431.452911 232.896072,465.572632 198.818924,499.775818 
	C197.163071,501.437836 196.198837,503.788910 194.912537,505.819122 
z"/>
<path fill="#AF1CA6" opacity="1.000000" stroke="none" 
	d="
M195.251038,505.901794 
	C196.198837,503.788910 197.163071,501.437836 198.818924,499.775818 
	C232.896072,465.572632 267.056915,431.452911 301.174408,397.289917 
	C302.558655,395.903778 303.681793,394.256866 305.424988,392.304382 
	C311.948242,391.839935 317.973114,391.802551 323.995758,392.144867 
	C322.774750,394.403839 321.842285,396.568542 320.295135,398.120483 
	C285.077271,433.447388 249.782639,468.697754 214.553940,504.013824 
	C213.096725,505.474609 212.138840,507.433472 210.948303,509.160278 
	C205.828720,508.101685 200.709137,507.043091 195.251038,505.901794 
z"/>
<path fill="#D91C8C" opacity="1.000000" stroke="none" 
	d="
M137.645248,483.883942 
	C131.989578,480.890747 126.333900,477.897522 120.779747,474.504700 
	C121.661812,473.493896 122.515976,472.956390 123.212288,472.260803 
	C148.124756,447.375275 173.042786,422.495148 197.869720,397.524475 
	C199.300873,396.085022 199.973846,393.891724 201.461578,391.962311 
	C209.949020,391.933319 217.974564,391.991272 225.995636,392.411377 
	C224.831955,394.511078 223.922745,396.497681 222.476532,397.949310 
	C195.568268,424.958344 168.587814,451.895477 141.659332,478.884430 
	C140.158569,480.388580 138.975937,482.210114 137.645248,483.883942 
z"/>
<path fill="#C21C9A" opacity="1.000000" stroke="none" 
	d="
M281.000000,392.049652 
	C279.777771,393.755463 278.765015,395.670197 277.302490,397.136322 
	C244.797592,429.721466 212.237244,462.251312 179.718094,494.822296 
	C178.341507,496.201111 177.260025,497.874573 175.999878,499.762939 
	C171.193573,498.466125 166.428436,496.817169 161.373810,494.668060 
	C162.347137,492.654419 163.501404,491.032532 164.888687,489.643311 
	C195.686234,458.804077 226.519455,428.000458 257.297119,397.141357 
	C258.761230,395.673279 259.775970,393.756989 261.461823,391.963501 
	C268.282410,391.934937 274.641205,391.992279 281.000000,392.049652 
z"/>
<path fill="#FB3284" opacity="1.000000" stroke="none" 
	d="
M87.894264,450.046265 
	C82.660622,445.259949 77.426971,440.473633 72.435822,435.351898 
	C74.421387,433.875183 76.421555,432.992523 77.868729,431.553680 
	C97.888145,411.649292 117.838692,391.675598 137.777145,371.689972 
	C139.048935,370.415161 140.082855,368.902985 141.513260,367.697418 
	C146.891876,372.195404 151.984680,376.497223 157.029388,381.157135 
	C155.776505,383.054474 154.714966,384.736420 153.345200,386.111267 
	C135.682327,403.839752 117.945183,421.494354 100.334160,439.273987 
	C98.832375,440.790100 98.096741,443.065125 96.691483,445.127136 
	C93.549927,446.859894 90.722092,448.453064 87.894264,450.046265 
z"/>
<path fill="#E41C85" opacity="1.000000" stroke="none" 
	d="
M200.999680,392.049255 
	C199.973846,393.891724 199.300873,396.085022 197.869720,397.524475 
	C173.042786,422.495148 148.124756,447.375275 123.212288,472.260803 
	C122.515976,472.956390 121.661812,473.493896 120.505577,474.249420 
	C115.495598,471.172760 110.861305,467.951843 106.233368,464.110474 
	C124.398705,445.254395 142.587204,427.047943 160.662552,408.729828 
	C162.165176,407.207031 162.903610,404.930176 164.299164,402.853455 
	C166.715668,401.142914 168.901337,399.669098 170.927979,398.001984 
	C174.015152,395.462524 176.992188,392.789154 180.413849,390.150940 
	C187.541046,390.769226 194.270355,391.409241 200.999680,392.049255 
z"/>
<path fill="#FF6170" opacity="1.000000" stroke="none" 
	d="
M39.122185,393.990021 
	C39.122181,393.990021 38.987747,393.579407 38.955330,393.016052 
	C37.994297,391.299042 37.065678,390.145386 36.137062,388.991699 
	C36.137066,388.991699 35.994358,388.581635 36.100155,388.048309 
	C37.266659,386.047455 38.151348,384.404358 39.414059,383.138275 
	C65.212914,357.270233 91.037567,331.427795 116.940376,305.664001 
	C118.223320,304.387939 120.261978,303.871674 122.021439,303.465393 
	C122.264275,311.288635 122.434410,318.648071 122.263931,326.014954 
	C120.690987,326.772919 119.250397,327.314453 118.256859,328.304626 
	C94.967072,351.515381 71.705162,374.754303 48.530533,398.079865 
	C47.257950,399.360687 46.785992,401.437012 45.941368,403.143036 
	C44.288158,401.043304 42.634945,398.943573 40.947266,396.169128 
	C40.315929,394.992981 39.719055,394.491486 39.122185,393.990021 
z"/>
<path fill="#FF6E6B" opacity="1.000000" stroke="none" 
	d="
M121.948746,303.001617 
	C120.261978,303.871674 118.223320,304.387939 116.940376,305.664001 
	C91.037567,331.427795 65.212914,357.270233 39.414059,383.138275 
	C38.151348,384.404358 37.266659,386.047455 36.063766,387.834290 
	C33.269444,383.723114 30.617311,379.292603 28.029579,374.146179 
	C28.060022,372.954742 28.026064,372.479218 28.337181,371.968628 
	C30.210356,370.700195 31.865658,369.594269 33.247791,368.214630 
	C61.127815,340.384827 88.965485,312.512604 116.862282,284.699646 
	C118.329071,283.237274 120.244194,282.224579 122.021988,281.466431 
	C122.045158,288.954102 121.996948,295.977875 121.948746,303.001617 
z"/>
<path fill="#FF5376" opacity="1.000000" stroke="none" 
	d="
M45.957367,403.495544 
	C46.785992,401.437012 47.257950,399.360687 48.530533,398.079865 
	C71.705162,374.754303 94.967072,351.515381 118.256859,328.304626 
	C119.250397,327.314453 120.690987,326.772919 122.386780,326.422241 
	C124.183533,332.550232 125.516823,338.278381 126.515594,344.047363 
	C125.610840,344.410339 124.932526,344.624176 124.485817,345.070038 
	C102.240974,367.272797 79.998528,389.478088 57.843723,411.770477 
	C56.804310,412.816315 56.564930,414.657227 55.952965,416.127869 
	C52.626431,412.034576 49.299900,407.941315 45.957367,403.495544 
z"/>
<path fill="#CF1C92" opacity="1.000000" stroke="none" 
	d="
M137.821884,484.154114 
	C138.975937,482.210114 140.158569,480.388580 141.659332,478.884430 
	C168.587814,451.895477 195.568268,424.958344 222.476532,397.949310 
	C223.922745,396.497681 224.831955,394.511078 226.456848,392.324951 
	C232.615128,391.933990 238.307724,391.991577 243.995789,392.411316 
	C242.832092,394.511017 241.923187,396.498047 240.476776,397.949341 
	C211.330688,427.194031 182.127869,456.382172 152.911758,485.556976 
	C151.511551,486.955170 149.884338,488.126068 148.362839,489.402832 
	C144.908066,487.743317 141.453293,486.083801 137.821884,484.154114 
z"/>
<path fill="#C91C96" opacity="1.000000" stroke="none" 
	d="
M148.628418,489.656616 
	C149.884338,488.126068 151.511551,486.955170 152.911758,485.556976 
	C182.127869,456.382172 211.330688,427.194031 240.476776,397.949341 
	C241.923187,396.498047 242.832092,394.511017 244.456696,392.325195 
	C250.281418,391.934418 255.640717,391.991943 261.000000,392.049438 
	C259.775970,393.756989 258.761230,395.673279 257.297119,397.141357 
	C226.519455,428.000458 195.686234,458.804077 164.888687,489.643311 
	C163.501404,491.032532 162.347137,492.654419 161.041870,494.500732 
	C156.964279,493.192474 152.929123,491.551453 148.628418,489.656616 
z"/>
<path fill="#A91CAB" opacity="1.000000" stroke="none" 
	d="
M211.175568,509.496277 
	C212.138840,507.433472 213.096725,505.474609 214.553940,504.013824 
	C249.782639,468.697754 285.077271,433.447388 320.295135,398.120483 
	C321.842285,396.568542 322.774750,394.403839 324.367493,391.994690 
	C330.162140,390.367065 335.582886,389.269318 341.003601,388.171570 
	C339.868317,390.081879 339.069397,392.327454 337.548523,393.853455 
	C300.595123,430.932770 263.555481,467.926178 226.582825,504.986359 
	C225.132538,506.440125 224.189957,508.400360 223.005325,510.478516 
	C219.134171,510.499084 215.268478,510.165680 211.175568,509.496277 
z"/>
<path fill="#FF467A" opacity="1.000000" stroke="none" 
	d="
M55.977795,416.475891 
	C56.564930,414.657227 56.804310,412.816315 57.843723,411.770477 
	C79.998528,389.478088 102.240974,367.272797 124.485817,345.070038 
	C124.932526,344.624176 125.610840,344.410339 126.652008,344.395447 
	C129.386093,349.137207 131.649261,353.571777 133.573730,358.044067 
	C132.301727,358.743164 131.250565,359.286407 130.452240,360.083069 
	C109.716461,380.775208 88.992088,401.478882 68.326660,422.241180 
	C66.955833,423.618469 66.067932,425.476379 64.955406,427.110748 
	C61.971149,423.681793 58.986889,420.252869 55.977795,416.475891 
z"/>
<path fill="#FF3A7F" opacity="1.000000" stroke="none" 
	d="
M65.085907,427.416565 
	C66.067932,425.476379 66.955833,423.618469 68.326660,422.241180 
	C88.992088,401.478882 109.716461,380.775208 130.452240,360.083069 
	C131.250565,359.286407 132.301727,358.743164 133.825409,358.270569 
	C136.686325,361.473297 138.956879,364.487274 141.227432,367.501251 
	C140.082855,368.902985 139.048935,370.415161 137.777145,371.689972 
	C117.838692,391.675598 97.888145,411.649292 77.868729,431.553680 
	C76.421555,432.992523 74.421387,433.875183 72.310234,435.041840 
	C71.942131,435.067230 71.970833,435.030609 71.860825,434.812103 
	C71.467484,434.409058 71.184158,434.224548 70.900841,434.040009 
	C69.006027,431.934143 67.111214,429.828278 65.085907,427.416565 
z"/>
<path fill="#ED1C7F" opacity="1.000000" stroke="none" 
	d="
M163.997101,403.003662 
	C162.903610,404.930176 162.165176,407.207031 160.662552,408.729828 
	C142.587204,427.047943 124.398705,445.254395 106.095886,463.798401 
	C105.787926,464.066315 105.623802,464.025757 105.086487,463.713562 
	C104.484154,463.213379 104.208977,463.078918 103.887787,463.038605 
	C98.648972,458.918335 93.410156,454.798096 88.032799,450.362061 
	C90.722092,448.453064 93.549927,446.859894 97.007584,444.992126 
	C119.757309,430.812897 141.877197,416.908264 163.997101,403.003662 
z"/>
<path fill="#FFFDFD" opacity="1.000000" stroke="none" 
	d="
M27.992104,372.003693 
	C28.026064,372.479218 28.060022,372.954742 28.035076,373.782928 
	C26.315268,371.029572 24.654362,367.923523 22.984550,364.419830 
	C22.975647,364.022156 23.008251,363.994385 23.352982,364.064423 
	C25.129175,366.757538 26.560638,369.380615 27.992104,372.003693 
z"/>
<path fill="#FF6E6B" opacity="1.000000" stroke="none" 
	d="
M36.148071,389.325134 
	C37.065678,390.145386 37.994297,391.299042 38.920387,392.802887 
	C37.998268,391.988220 37.078674,390.823364 36.148071,389.325134 
z"/>
<path fill="#FF6E6B" opacity="1.000000" stroke="none" 
	d="
M39.106522,394.295715 
	C39.719055,394.491486 40.315929,394.992981 40.921364,395.819214 
	C40.316906,395.629791 39.703880,395.115601 39.106522,394.295715 
z"/>
<path fill="#FFFDFD" opacity="1.000000" stroke="none" 
	d="
M22.959911,364.036743 
	C22.627407,363.599579 22.310638,363.147888 21.961725,362.383057 
	C21.929579,362.069885 21.973137,362.026459 22.337822,362.044373 
	C22.804422,362.706329 22.906338,363.350342 23.008251,363.994385 
	C23.008251,363.994385 22.975647,364.022156 22.959911,364.036743 
z"/>
<path fill="#FB3284" opacity="1.000000" stroke="none" 
	d="
M70.991470,434.287354 
	C71.184158,434.224548 71.467484,434.409058 71.853798,434.830841 
	C71.665230,434.890289 71.373672,434.712463 70.991470,434.287354 
z"/>
<path fill="#E41C85" opacity="1.000000" stroke="none" 
	d="
M103.981544,463.281006 
	C104.208977,463.078918 104.484154,463.213379 104.845779,463.633789 
	C104.677269,463.724884 104.376289,463.624176 103.981544,463.281006 
z"/>
<path fill="#FBCC2B" opacity="1.000000" stroke="none" 
	d="
M2.617580,227.990280 
	C4.216599,217.180099 6.167730,206.362442 8.687224,195.257812 
	C10.812015,194.172134 12.698541,193.704132 13.877519,192.527298 
	C73.439552,133.073120 132.951569,73.568794 192.383224,13.984336 
	C193.726593,12.637525 194.084167,10.307430 194.901566,8.435994 
	C205.668793,6.353169 216.436035,4.270344 227.600952,2.228932 
	C226.798584,4.547284 226.068039,7.292689 224.330872,9.033691 
	C152.691391,80.831024 80.970123,152.546768 9.189878,224.203400 
	C7.521502,225.868912 5.060818,226.740753 2.617580,227.990280 
z"/>
<path fill="#FFFDFD" opacity="1.000000" stroke="none" 
	d="
M141.513260,367.697418 
	C138.956879,364.487274 136.686325,361.473297 134.164093,358.232849 
	C131.649261,353.571777 129.386093,349.137207 126.986526,344.354584 
	C125.516823,338.278381 124.183533,332.550232 122.727394,326.414795 
	C122.434410,318.648071 122.264275,311.288635 122.021439,303.465393 
	C121.996948,295.977875 122.045158,288.954102 122.097298,281.002869 
	C122.049881,274.050964 121.998528,268.026489 122.021179,261.539001 
	C122.046196,255.717865 121.997208,250.359741 122.020172,244.538513 
	C122.044014,238.717224 121.995903,233.359024 122.019203,227.537384 
	C122.042786,221.382782 121.994949,215.691635 122.018646,209.537415 
	C122.058266,203.716019 122.026337,198.357712 122.086426,192.598740 
	C123.391472,185.797333 124.604507,179.396591 125.817551,172.995834 
	C134.182083,150.287674 149.625748,134.602615 173.042175,125.959015 
	C179.839005,124.545929 185.919479,123.290321 192.464874,122.094803 
	C198.620087,122.086464 204.310349,122.018036 210.463806,122.022812 
	C216.618210,122.047562 222.309448,121.999107 228.463623,122.023148 
	C234.284821,122.046822 239.643082,121.998009 245.464310,122.021011 
	C251.285538,122.045280 256.643768,121.997726 262.464966,122.021774 
	C268.286011,122.046173 273.644073,121.998955 279.002167,121.951736 
	C283.694366,122.001572 288.386536,122.051407 293.539856,122.025398 
	C299.026489,122.001228 304.052002,122.052902 309.539185,122.027290 
	C315.720276,122.268532 321.439697,122.587051 327.582031,122.861847 
	C333.392822,124.237511 338.780731,125.656898 344.539978,127.166397 
	C349.323212,129.575714 353.735077,131.894913 358.473206,134.365479 
	C361.941620,137.040512 365.083801,139.564194 368.531586,142.251556 
	C371.716553,145.819794 374.595856,149.224350 377.754944,152.810699 
	C379.897400,156.157822 381.760101,159.323120 383.908142,163.100067 
	C386.187012,169.147079 388.180573,174.582443 390.174072,180.017807 
	C390.743469,186.710281 391.312866,193.402771 391.967102,200.547668 
	C391.995300,211.358490 391.938660,221.716919 391.967072,232.537476 
	C391.995148,244.024994 391.938141,255.050354 391.966522,266.537842 
	C391.994751,278.691956 391.937622,290.383911 391.966248,302.537933 
	C391.396942,313.059570 390.741852,323.119110 390.110229,333.589783 
	C387.357178,344.173676 383.246735,353.719971 376.751099,362.535522 
	C372.151917,367.273468 367.687256,371.685150 363.045807,376.365295 
	C355.794952,380.364044 348.720886,384.094360 341.325195,387.998108 
	C335.582886,389.269318 330.162140,390.367065 324.369690,391.614990 
	C317.973114,391.802551 311.948242,391.839935 305.461700,391.963074 
	C297.308044,391.991913 289.616058,391.934967 281.462036,391.963837 
	C274.641205,391.992279 268.282410,391.934937 261.461792,391.963531 
	C255.640717,391.991943 250.281418,391.934418 244.461212,391.963013 
	C238.307724,391.991577 232.615128,391.933990 226.461334,391.962830 
	C217.974564,391.991272 209.949020,391.933319 201.461578,391.962341 
	C194.270355,391.409241 187.541046,390.769226 180.062714,390.002319 
	C171.901642,386.849945 164.489563,383.824463 157.077484,380.799011 
	C151.984680,376.497223 146.891876,372.195404 141.513260,367.697418 
M273.151489,145.979202 
	C271.435181,146.026077 269.718842,146.072952 267.153687,145.978745 
	C265.436066,146.025406 263.718414,146.072052 261.093628,145.978745 
	C257.729431,146.025589 254.365250,146.072433 250.076462,145.977951 
	C245.051437,146.024811 240.026428,146.071686 234.074921,145.977554 
	C228.716461,146.024979 223.358017,146.072403 217.072159,145.981201 
	C211.383179,146.128128 205.694183,146.275070 199.233276,146.346344 
	C168.579132,150.507904 148.677902,175.155121 146.158249,200.905563 
	C146.141830,206.603561 146.125397,212.301544 145.970917,218.926010 
	C146.016953,224.284302 146.062988,229.642609 145.972305,235.925903 
	C146.017563,240.951065 146.062836,245.976242 145.969894,251.909134 
	C146.015976,255.273041 146.062073,258.636932 145.966812,262.921265 
	C146.013657,267.282288 146.060486,271.643341 145.968597,276.931854 
	C146.014877,283.289337 146.061172,289.646820 145.966461,296.930939 
	C146.209885,302.990936 146.453323,309.050964 146.682114,315.955444 
	C148.290741,321.340057 149.899368,326.724640 151.730774,332.825439 
	C155.161530,337.861633 158.592270,342.897827 162.271820,348.560730 
	C167.849030,352.706482 173.426239,356.852264 179.477325,361.516144 
	C185.960983,363.449890 192.444626,365.383606 199.644455,367.710693 
	C203.767838,367.777283 207.891205,367.843872 212.942245,368.040375 
	C221.294678,367.987305 229.647110,367.934235 238.925720,368.035950 
	C247.283401,367.984283 255.641098,367.932617 264.925537,368.034271 
	C272.950287,367.982971 280.975006,367.931671 289.926056,368.033997 
	C296.616791,367.973297 303.307495,367.912598 310.849884,367.980377 
	C313.482941,367.653412 316.137848,367.448364 318.745697,366.980682 
	C345.801849,362.128693 368.143280,336.183014 368.018188,309.073456 
	C367.976013,302.382385 367.933868,295.691284 368.048218,288.074249 
	C367.996399,280.049072 367.944580,272.023895 368.049103,263.072937 
	C367.997070,254.715073 367.945038,246.357193 368.048370,237.073151 
	C368.006744,228.719696 367.965088,220.366226 368.071106,211.121841 
	C367.936523,207.658691 367.801941,204.195557 367.656860,199.894440 
	C367.041809,196.929932 366.426788,193.965408 365.821838,190.272797 
	C364.431519,186.848923 363.041199,183.425034 361.475555,179.363846 
	C357.990021,174.573380 354.504486,169.782913 350.763062,164.370468 
	C346.590454,161.198120 342.417816,158.025787 337.833771,154.290161 
	C334.373688,152.791580 330.913635,151.292999 326.876129,149.276093 
	C322.254150,148.278748 317.632141,147.281403 312.096161,146.076050 
	C307.398682,146.089813 302.701172,146.103577 297.083313,145.971680 
	C292.722534,146.021057 288.361786,146.070419 283.101562,145.976089 
	C280.067627,146.024414 277.033691,146.072739 273.151489,145.979202 
z"/>
<path fill="#FDA848" opacity="1.000000" stroke="none" 
	d="
M125.465477,173.002411 
	C124.604507,179.396591 123.391472,185.797333 121.721680,192.603058 
	C119.407745,194.274261 117.295250,195.284424 115.730949,196.844345 
	C80.764053,231.713211 45.871887,266.657013 10.891324,301.512115 
	C9.362001,303.035980 7.126952,303.851593 5.220640,304.997101 
	C4.498180,300.611725 3.775721,296.226349 3.113873,291.419464 
	C5.089409,289.858856 7.339865,289.056427 8.870139,287.531403 
	C45.937038,250.590683 82.917862,213.563583 119.965225,176.603210 
	C121.424301,175.147568 123.385933,174.195633 125.465477,173.002411 
z"/>
<path fill="#FDA848" opacity="1.000000" stroke="none" 
	d="
M191.999939,122.034706 
	C185.919479,123.290321 179.839005,124.545929 173.377136,125.809448 
	C174.137329,123.904701 174.944382,121.658630 176.469574,120.128212 
	C213.026810,83.445229 249.673492,46.851379 286.244263,10.181841 
	C288.075043,8.346130 289.368683,5.974789 290.953979,3.513583 
	C295.385223,3.801352 299.774963,4.428390 304.575897,5.486178 
	C303.798340,7.637657 302.840332,9.588552 301.387024,11.045403 
	C266.160767,46.358158 230.872482,81.609070 195.644577,116.920204 
	C194.186157,118.382065 193.203979,120.319061 191.999939,122.034706 
z"/>
<path fill="#FBD624" opacity="1.000000" stroke="none" 
	d="
M194.490479,8.452692 
	C194.084167,10.307430 193.726593,12.637525 192.383224,13.984336 
	C132.951569,73.568794 73.439552,133.073120 13.877519,192.527298 
	C12.698541,193.704132 10.812015,194.172134 8.833210,194.926514 
	C12.625661,182.060852 16.840490,169.239548 21.624210,156.163147 
	C24.226789,154.673981 26.606575,153.787094 28.243586,152.155121 
	C69.971985,110.555222 111.622887,68.877579 153.285522,27.211725 
	C154.226700,26.270485 155.397903,25.437092 155.977997,24.305397 
	C156.297104,23.682878 155.605362,22.542198 155.369370,21.635134 
	C168.272705,17.246552 181.176041,12.857971 194.490479,8.452692 
z"/>
<path fill="#FADF1F" opacity="1.000000" stroke="none" 
	d="
M155.054810,21.758366 
	C155.605362,22.542198 156.297104,23.682878 155.977997,24.305397 
	C155.397903,25.437092 154.226700,26.270485 153.285522,27.211725 
	C111.622887,68.877579 69.971985,110.555222 28.243586,152.155121 
	C26.606575,153.787094 24.226789,154.673981 21.780777,155.864151 
	C48.488220,93.909920 92.981873,49.299934 155.054810,21.758366 
z"/>
<path fill="#FE9F4E" opacity="1.000000" stroke="none" 
	d="
M192.464874,122.094795 
	C193.203979,120.319061 194.186157,118.382065 195.644577,116.920204 
	C230.872482,81.609070 266.160767,46.358158 301.387024,11.045403 
	C302.840332,9.588552 303.798340,7.637657 304.992554,5.567352 
	C309.403320,6.159051 313.808655,7.100329 318.605957,8.497053 
	C317.793396,11.006772 316.957031,13.427580 315.330200,15.061296 
	C281.499420,49.035728 247.569916,82.911835 213.706985,116.854340 
	C212.241501,118.323280 211.225830,120.240974 210.000610,121.949615 
	C204.310349,122.018036 198.620087,122.086464 192.464874,122.094795 
z"/>
<path fill="#FE9655" opacity="1.000000" stroke="none" 
	d="
M210.463806,122.022812 
	C211.225830,120.240974 212.241501,118.323280 213.706985,116.854340 
	C247.569916,82.911835 281.499420,49.035728 315.330200,15.061296 
	C316.957031,13.427580 317.793396,11.006772 318.997864,8.586529 
	C323.744690,9.517990 328.491486,10.815419 333.609985,12.581608 
	C332.760284,14.761023 331.750916,16.683161 330.286407,18.151272 
	C297.448029,51.070770 264.550232,83.931015 231.711380,116.850075 
	C230.244339,118.320694 229.227295,120.240219 228.000671,121.950661 
	C222.309448,121.999107 216.618210,122.047562 210.463806,122.022812 
z"/>
<path fill="#FF8D5D" opacity="1.000000" stroke="none" 
	d="
M228.463623,122.023148 
	C229.227295,120.240219 230.244339,118.320694 231.711380,116.850075 
	C264.550232,83.931015 297.448029,51.070770 330.286407,18.151272 
	C331.750916,16.683161 332.760284,14.761023 333.986572,12.713517 
	C338.127319,13.812771 342.263214,15.248873 346.660461,17.228523 
	C345.671600,19.291014 344.537720,20.926167 343.154022,22.311815 
	C311.675781,53.834442 280.160461,85.320053 248.700562,116.860962 
	C247.237564,118.327713 246.224136,120.242882 245.001328,121.949196 
	C239.643082,121.998009 234.284821,122.046822 228.463623,122.023148 
z"/>
<path fill="#FF8362" opacity="1.000000" stroke="none" 
	d="
M245.464310,122.021011 
	C246.224136,120.242882 247.237564,118.327713 248.700562,116.860962 
	C280.160461,85.320053 311.675781,53.834442 343.154022,22.311815 
	C344.537720,20.926167 345.671600,19.291014 346.960266,17.435410 
	C350.863068,18.536758 354.727478,19.974766 358.664429,22.009043 
	C357.311554,24.416651 356.052673,26.394197 354.435883,28.014662 
	C324.871460,57.646683 295.253693,87.225525 265.696686,116.864952 
	C264.235077,118.330627 263.223267,120.244827 262.002014,121.950165 
	C256.643768,121.997726 251.285538,122.045280 245.464310,122.021011 
z"/>
<path fill="#FF7966" opacity="1.000000" stroke="none" 
	d="
M262.464966,122.021774 
	C263.223267,120.244827 264.235077,118.330627 265.696686,116.864952 
	C295.253693,87.225525 324.871460,57.646683 354.435883,28.014662 
	C356.052673,26.394197 357.311554,24.416651 358.873047,22.294079 
	C359.764648,22.092049 360.520203,22.201254 361.631439,22.165493 
	C364.523376,23.493746 367.059631,24.966965 369.798706,26.719452 
	C368.906189,28.927242 368.171204,31.214207 366.662140,32.731136 
	C338.763031,60.775730 310.765503,88.722412 282.817413,116.718399 
	C281.435852,118.102325 280.315613,119.747086 279.037903,121.611069 
	C273.644073,121.998955 268.286011,122.046173 262.464966,122.021774 
z"/>
<path fill="#FE9F4E" opacity="1.000000" stroke="none" 
	d="
M5.185478,305.390137 
	C7.126952,303.851593 9.362001,303.035980 10.891324,301.512115 
	C45.871887,266.657013 80.764053,231.713211 115.730949,196.844345 
	C117.295250,195.284424 119.407745,194.274261 121.629662,193.003708 
	C122.026337,198.357712 122.058266,203.716019 121.678406,209.573914 
	C119.741142,211.318909 118.094383,212.442902 116.707901,213.827530 
	C82.773750,247.716232 48.890820,281.656311 14.886367,315.474243 
	C13.182681,317.168579 10.468944,317.847260 8.225508,318.998871 
	C7.200442,314.593628 6.175379,310.188385 5.185478,305.390137 
z"/>
<path fill="#FE9655" opacity="1.000000" stroke="none" 
	d="
M8.212654,319.378021 
	C10.468944,317.847260 13.182681,317.168579 14.886367,315.474243 
	C48.890820,281.656311 82.773750,247.716232 116.707901,213.827530 
	C118.094383,212.442902 119.741142,211.318909 121.606873,210.036987 
	C121.994949,215.691635 122.042786,221.382782 121.678925,227.573730 
	C119.740540,229.319946 118.092583,230.444870 116.704979,231.830551 
	C83.804649,264.685059 50.946728,297.582092 18.009613,330.399628 
	C16.467630,331.936035 14.265333,332.809692 12.370564,333.992035 
	C10.980310,329.247070 9.590054,324.502136 8.212654,319.378021 
z"/>
<path fill="#FF7966" opacity="1.000000" stroke="none" 
	d="
M121.947174,262.002045 
	C121.998528,268.026489 122.049881,274.050964 122.025909,280.538971 
	C120.244194,282.224579 118.329071,283.237274 116.862282,284.699646 
	C88.965485,312.512604 61.127815,340.384827 33.247791,368.214630 
	C31.865658,369.594269 30.210356,370.700195 28.337177,371.968628 
	C26.560638,369.380615 25.129175,366.757538 23.352982,364.064423 
	C22.906338,363.350342 22.804422,362.706329 22.361525,362.024750 
	C22.026329,361.247833 22.032118,360.508423 22.355467,359.352234 
	C24.202173,357.703430 25.859739,356.600098 27.241564,355.220581 
	C57.122444,325.389404 86.962303,295.517151 116.859322,265.702179 
	C118.326324,264.239197 120.240982,263.225128 121.947174,262.002045 
z"/>
<path fill="#FF8D5D" opacity="1.000000" stroke="none" 
	d="
M12.447470,334.339844 
	C14.265333,332.809692 16.467630,331.936035 18.009613,330.399628 
	C50.946728,297.582092 83.804649,264.685059 116.704979,231.830551 
	C118.092583,230.444870 119.740540,229.319946 121.607498,228.037201 
	C121.995903,233.359024 122.044014,238.717224 121.679863,244.574646 
	C119.744530,246.316483 118.100151,247.437592 116.716202,248.819519 
	C85.193329,280.296082 53.708355,311.810608 22.169331,343.270935 
	C20.700264,344.736328 18.795670,345.765137 17.093908,346.997253 
	C15.570729,342.894043 14.047554,338.790833 12.447470,334.339844 
z"/>
<path fill="#FF8362" opacity="1.000000" stroke="none" 
	d="
M17.094231,347.369263 
	C18.795670,345.765137 20.700264,344.736328 22.169331,343.270935 
	C53.708355,311.810608 85.193329,280.296082 116.716202,248.819519 
	C118.100151,247.437592 119.744530,246.316483 121.607910,245.037750 
	C121.997208,250.359741 122.046196,255.717865 122.021179,261.539001 
	C120.240982,263.225128 118.326324,264.239197 116.859322,265.702179 
	C86.962303,295.517151 57.122444,325.389404 27.241564,355.220581 
	C25.859739,356.600098 24.202173,357.703430 22.327122,358.970642 
	C20.352327,355.251007 18.723438,351.496124 17.094231,347.369263 
z"/>
<path fill="#EF338C" opacity="1.000000" stroke="none" 
	d="
M390.510132,179.968658 
	C388.180573,174.582443 386.187012,169.147079 384.143860,163.354553 
	C385.671906,161.889252 387.446350,160.979721 388.796356,159.641861 
	C400.665466,147.879684 412.422028,136.003784 424.316132,124.267189 
	C426.026154,122.579788 428.291138,121.454811 430.652283,120.035736 
	C424.044312,131.116928 417.090790,142.236572 410.113220,153.341110 
	C409.239655,154.731339 408.239105,156.041718 407.150513,157.694244 
	C401.617767,165.306091 396.231934,172.612808 390.510132,179.968658 
z"/>
<path fill="#F1328B" opacity="1.000000" stroke="none" 
	d="
M157.029388,381.157135 
	C164.489563,383.824463 171.901642,386.849945 179.664856,390.024048 
	C176.992188,392.789154 174.015152,395.462524 170.927979,398.001984 
	C168.901337,399.669098 166.715668,401.142914 164.299164,402.853455 
	C141.877197,416.908264 119.757309,430.812897 97.321304,444.852539 
	C98.096741,443.065125 98.832375,440.790100 100.334160,439.273987 
	C117.945183,421.494354 135.682327,403.839752 153.345200,386.111267 
	C154.714966,384.736420 155.776505,383.054474 157.029388,381.157135 
z"/>
<path fill="#D61D8F" opacity="1.000000" stroke="none" 
	d="
M367.893036,237.999329 
	C367.945038,246.357193 367.997070,254.715073 367.613037,263.541168 
	C365.680542,264.943787 363.940765,265.634094 362.723297,266.848175 
	C330.671783,298.810028 298.660431,330.812256 266.717957,362.882965 
	C265.433563,364.172485 264.888367,366.198212 263.998779,367.880951 
	C255.641098,367.932617 247.283401,367.984283 238.502655,367.622498 
	C239.219421,365.806274 240.248245,364.293121 241.516495,363.018066 
	C252.682098,351.792511 263.953613,340.671265 275.020477,329.349701 
	C276.764130,327.565887 277.638611,324.932434 279.169312,322.459106 
	C300.011078,314.610718 313.597656,299.990265 322.114441,279.923157 
	C324.522797,278.577789 326.850098,277.529663 328.555817,275.850220 
	C340.159241,264.425598 351.608948,252.845001 363.177032,241.384140 
	C364.534485,240.039307 366.310852,239.117325 367.893036,237.999329 
z"/>
<path fill="#CB1C95" opacity="1.000000" stroke="none" 
	d="
M264.462158,367.957611 
	C264.888367,366.198212 265.433563,364.172485 266.717957,362.882965 
	C298.660431,330.812256 330.671783,298.810028 362.723297,266.848175 
	C363.940765,265.634094 365.680542,264.943787 367.534851,264.004059 
	C367.944580,272.023895 367.996399,280.049072 367.633179,288.576477 
	C366.286713,289.744629 365.240051,290.295135 364.440613,291.093262 
	C340.049133,315.443604 315.673767,339.810089 291.340179,364.218231 
	C290.340973,365.220551 289.770142,366.649933 288.999756,367.880371 
	C280.975006,367.931671 272.950287,367.982971 264.462158,367.957611 
z"/>
<path fill="#FF7966" opacity="1.000000" stroke="none" 
	d="
M235.001404,146.118561 
	C240.026428,146.071686 245.051437,146.024811 250.498505,146.383911 
	C250.136520,147.837021 249.467041,148.998596 248.551926,149.914825 
	C215.766098,182.740143 182.964188,215.549408 150.122559,248.318863 
	C149.004913,249.434036 147.456009,250.117004 146.108109,251.001404 
	C146.062836,245.976242 146.017563,240.951065 146.376617,235.423645 
	C147.945129,234.023026 149.224533,233.240051 150.256729,232.209457 
	C177.635361,204.873154 204.996628,177.519409 232.316772,150.124664 
	C233.430664,149.007721 234.116272,147.463638 235.001404,146.118561 
z"/>
<path fill="#C11C9B" opacity="1.000000" stroke="none" 
	d="
M289.462891,367.957184 
	C289.770142,366.649933 290.340973,365.220551 291.340179,364.218231 
	C315.673767,339.810089 340.049133,315.443604 364.440613,291.093262 
	C365.240051,290.295135 366.286713,289.744629 367.554932,289.039459 
	C367.933868,295.691284 367.976013,302.382385 367.603973,309.577454 
	C366.500427,310.517029 365.700989,310.842224 365.137726,311.404114 
	C347.400269,329.099731 329.676056,346.808716 311.996521,364.562134 
	C311.116547,365.445740 310.654755,366.745758 309.998230,367.851898 
	C303.307495,367.912598 296.616791,367.973297 289.462891,367.957184 
z"/>
<path fill="#FF8362" opacity="1.000000" stroke="none" 
	d="
M234.538162,146.048065 
	C234.116272,147.463638 233.430664,149.007721 232.316772,150.124664 
	C204.996628,177.519409 177.635361,204.873154 150.256729,232.209457 
	C149.224533,233.240051 147.945129,234.023026 146.444977,234.961151 
	C146.062988,229.642609 146.016953,224.284302 146.375885,218.423492 
	C147.713181,217.254486 148.760712,216.703461 149.560989,215.904694 
	C171.617874,193.889877 193.658676,171.858887 215.656219,149.784836 
	C216.656250,148.781326 217.228210,147.351227 217.999557,146.119827 
	C223.358017,146.072403 228.716461,146.024979 234.538162,146.048065 
z"/>
<path fill="#FB3385" opacity="1.000000" stroke="none" 
	d="
M179.003448,360.998047 
	C173.426239,356.852264 167.849030,352.706482 162.178986,347.907623 
	C162.505859,346.558746 162.805893,345.743774 163.362823,345.184753 
	C176.458405,332.040863 189.567017,318.909821 202.733154,305.836731 
	C203.606049,304.970001 204.955612,304.583374 206.380920,304.116425 
	C211.781555,308.522186 216.884750,312.784973 221.839569,317.342133 
	C219.485672,319.899414 217.290939,322.173004 215.072754,324.423431 
	C203.052856,336.618134 191.027161,348.807098 179.003448,360.998047 
z"/>
<path fill="#FF7169" opacity="1.000000" stroke="none" 
	d="
M146.039001,251.455276 
	C147.456009,250.117004 149.004913,249.434036 150.122559,248.318863 
	C182.964188,215.549408 215.766098,182.740143 248.551926,149.914825 
	C249.467041,148.998596 250.136520,147.837021 250.960800,146.454575 
	C254.365250,146.072433 257.729431,146.025589 261.541931,146.405243 
	C261.053955,148.327301 260.360779,150.065414 259.145996,151.283142 
	C223.182373,187.333755 187.179321,223.345078 151.109528,259.289398 
	C149.821167,260.573303 147.792038,261.113861 146.108154,262.000854 
	C146.062073,258.636932 146.015976,255.273041 146.039001,251.455276 
z"/>
<path fill="#FF6C6C" opacity="1.000000" stroke="none" 
	d="
M146.037476,262.461060 
	C147.792038,261.113861 149.821167,260.573303 151.109528,259.289398 
	C187.179321,223.345078 223.182373,187.333755 259.145996,151.283142 
	C260.360779,150.065414 261.053955,148.327301 261.995544,146.475220 
	C263.718414,146.072052 265.436066,146.025406 267.572327,146.405762 
	C266.944702,148.437881 266.136230,150.278625 264.815369,151.611618 
	C251.654892,164.892838 238.386429,178.067032 225.225037,191.347336 
	C223.903625,192.680664 223.086563,194.513824 221.931915,196.437439 
	C207.748352,206.409698 197.095825,218.760834 191.191223,235.129761 
	C189.228119,236.218124 187.445847,237.129364 186.090683,238.471741 
	C174.518723,249.934570 163.064606,261.516663 151.454269,272.940094 
	C150.037994,274.333557 147.907074,275.000671 146.107330,276.004364 
	C146.060486,271.643341 146.013657,267.282288 146.037476,262.461060 
z"/>
<path fill="#FF8D5D" opacity="1.000000" stroke="none" 
	d="
M217.535858,146.050507 
	C217.228210,147.351227 216.656250,148.781326 215.656219,149.784836 
	C193.658676,171.858887 171.617874,193.889877 149.560989,215.904694 
	C148.760712,216.703461 147.713181,217.254486 146.444916,217.960251 
	C146.125397,212.301544 146.141830,206.603561 146.607986,200.396500 
	C148.801071,198.662262 150.762985,197.657333 152.253891,196.177795 
	C166.986252,181.557816 181.672043,166.890320 196.271240,152.137573 
	C197.839615,150.552734 198.775772,148.342255 200.005203,146.422012 
	C205.694183,146.275070 211.383179,146.128128 217.535858,146.050507 
z"/>
<path fill="#F1328B" opacity="1.000000" stroke="none" 
	d="
M179.240387,361.257080 
	C191.027161,348.807098 203.052856,336.618134 215.072754,324.423431 
	C217.290939,322.173004 219.485672,319.899414 222.186707,317.400696 
	C227.787811,319.453278 232.893402,321.741669 237.963638,324.372650 
	C236.807999,326.121094 235.808060,327.646484 234.548523,328.913971 
	C224.015961,339.513000 213.371826,350.002289 202.932053,360.691376 
	C201.176483,362.488892 200.242111,365.088409 198.928284,367.317322 
	C192.444626,365.383606 185.960983,363.449890 179.240387,361.257080 
z"/>
<path fill="#FF3C7F" opacity="1.000000" stroke="none" 
	d="
M206.083466,303.973450 
	C204.955612,304.583374 203.606049,304.970001 202.733154,305.836731 
	C189.567017,318.909821 176.458405,332.040863 163.362823,345.184753 
	C162.805893,345.743774 162.505859,346.558746 162.054596,347.594269 
	C158.592270,342.897827 155.161530,337.861633 152.005905,332.423401 
	C153.845825,330.855713 155.577621,329.858398 156.949097,328.497894 
	C168.500839,317.038788 179.946243,305.472168 191.544601,294.060822 
	C192.958069,292.670135 195.086975,292.006592 197.058548,291.308472 
	C200.182999,295.731750 203.133240,299.852631 206.083466,303.973450 
z"/>
<path fill="#BA1FA1" opacity="1.000000" stroke="none" 
	d="
M310.424072,367.916138 
	C310.654755,366.745758 311.116547,365.445740 311.996521,364.562134 
	C329.676056,346.808716 347.400269,329.099731 365.137726,311.404114 
	C365.700989,310.842224 366.500427,310.517029 367.524231,310.039978 
	C368.143280,336.183014 345.801849,362.128693 318.745697,366.980682 
	C316.137848,367.448364 313.482941,367.653412 310.424072,367.916138 
z"/>
<path fill="#FF4A79" opacity="1.000000" stroke="none" 
	d="
M196.884338,291.006073 
	C195.086975,292.006592 192.958069,292.670135 191.544601,294.060822 
	C179.946243,305.472168 168.500839,317.038788 156.949097,328.497894 
	C155.577621,329.858398 153.845825,330.855713 151.894531,332.065308 
	C149.899368,326.724640 148.290741,321.340057 147.028534,315.399658 
	C149.200500,313.445312 151.201828,312.224365 152.823151,310.619507 
	C163.663315,299.889343 174.388809,289.043182 185.247818,278.332336 
	C186.706879,276.893188 188.706329,276.001923 190.634796,275.157654 
	C192.837479,280.640930 194.860901,285.823517 196.884338,291.006073 
z"/>
<path fill="#DF1C88" opacity="1.000000" stroke="none" 
	d="
M367.970703,237.536240 
	C366.310852,239.117325 364.534485,240.039307 363.177032,241.384140 
	C351.608948,252.845001 340.159241,264.425598 328.555817,275.850220 
	C326.850098,277.529663 324.522797,278.577789 322.162567,279.525696 
	C323.067474,272.428650 324.292969,265.723938 325.829376,258.959290 
	C335.093323,248.930878 344.066895,238.980774 352.991394,228.986862 
	C358.010620,223.366196 362.948761,217.673187 367.923462,212.012772 
	C367.965088,220.366226 368.006744,228.719696 367.970703,237.536240 
z"/>
<path fill="#DF1C88" opacity="1.000000" stroke="none" 
	d="
M278.914948,322.691803 
	C277.638611,324.932434 276.764130,327.565887 275.020477,329.349701 
	C263.953613,340.671265 252.682098,351.792511 241.516495,363.018066 
	C240.248245,364.293121 239.219421,365.806274 238.039566,367.545105 
	C229.647110,367.934235 221.294678,367.987305 212.526642,367.644165 
	C222.448578,358.477325 232.882416,349.816742 243.083557,340.890259 
	C248.276642,336.346069 253.051422,331.323822 258.458405,326.410004 
	C265.572662,325.098846 272.243805,323.895325 278.914948,322.691803 
z"/>
<path fill="#FF6170" opacity="1.000000" stroke="none" 
	d="
M146.037964,276.468109 
	C147.907074,275.000671 150.037994,274.333557 151.454269,272.940094 
	C163.064606,261.516663 174.518723,249.934570 186.090683,238.471741 
	C187.445847,237.129364 189.228119,236.218124 191.078766,235.526123 
	C190.241898,243.296402 189.138687,250.647568 187.688583,258.031647 
	C185.932968,259.171143 184.397781,260.150391 183.135468,261.404327 
	C172.558975,271.910583 162.076294,282.511749 151.438629,292.955231 
	C150.025665,294.342438 147.902008,295.005768 146.107468,296.004303 
	C146.061172,289.646820 146.014877,283.289337 146.037964,276.468109 
z"/>
<path fill="#FF5675" opacity="1.000000" stroke="none" 
	d="
M146.036957,296.467621 
	C147.902008,295.005768 150.025665,294.342438 151.438629,292.955231 
	C162.076294,282.511749 172.558975,271.910583 183.135468,261.404327 
	C184.397781,260.150391 185.932968,259.171143 187.770752,258.444336 
	C188.951706,264.168365 189.703613,269.512634 190.455536,274.856934 
	C188.706329,276.001923 186.706879,276.893188 185.247818,278.332336 
	C174.388809,289.043182 163.663315,299.889343 152.823151,310.619507 
	C151.201828,312.224365 149.200500,313.445312 147.035858,314.977417 
	C146.453323,309.050964 146.209885,302.990936 146.036957,296.467621 
z"/>
<path fill="#E93490" opacity="1.000000" stroke="none" 
	d="
M258.015289,326.517670 
	C253.051422,331.323822 248.276642,336.346069 243.083557,340.890259 
	C232.882416,349.816742 222.448578,358.477325 212.062805,367.579193 
	C207.891205,367.843872 203.767838,367.777283 199.286377,367.514008 
	C200.242111,365.088409 201.176483,362.488892 202.932053,360.691376 
	C213.371826,350.002289 224.015961,339.513000 234.548523,328.913971 
	C235.808060,327.646484 236.807999,326.121094 238.370331,324.359741 
	C245.213364,324.842072 251.614334,325.679871 258.015289,326.517670 
z"/>
<path fill="#FE9758" opacity="1.000000" stroke="none" 
	d="
M199.619232,146.384186 
	C198.775772,148.342255 197.839615,150.552734 196.271240,152.137573 
	C181.672043,166.890320 166.986252,181.557816 152.253891,196.177795 
	C150.762985,197.657333 148.801071,198.662262 146.739929,199.945999 
	C148.677902,175.155121 168.579132,150.507904 199.619232,146.384186 
z"/>
<path fill="#FF447C" opacity="1.000000" stroke="none" 
	d="
M327.453552,149.794418 
	C330.913635,151.292999 334.373688,152.791580 337.743042,154.759064 
	C335.802826,157.283798 333.834106,159.246780 332.139038,161.422897 
	C330.605927,163.391083 329.371643,165.592026 327.639313,167.805420 
	C319.353912,169.428665 315.237457,174.697678 312.899475,182.085388 
	C306.990265,187.817825 301.445251,193.550598 295.561554,199.177612 
	C291.809265,197.069122 288.395630,195.066376 285.018372,192.715057 
	C286.161865,190.952225 287.139954,189.409912 288.396484,188.143982 
	C298.224884,178.242020 308.078156,168.364243 317.989197,158.545074 
	C321.039673,155.522888 324.293060,152.705551 327.453552,149.794418 
z"/>
<path fill="#F93487" opacity="1.000000" stroke="none" 
	d="
M351.018982,164.992462 
	C354.504486,169.782913 357.990021,174.573380 361.244934,179.735382 
	C359.641388,181.272781 358.181335,182.351120 356.909241,183.618195 
	C345.188080,195.293182 333.529999,207.031784 321.762207,218.659409 
	C320.305908,220.098358 318.316254,220.997498 316.338135,221.927277 
	C313.063110,217.482056 310.023682,213.256348 307.129517,208.728836 
	C311.181061,204.618912 315.087311,200.810806 319.324402,197.127716 
	C323.857422,198.326462 328.150452,200.566147 332.243958,200.246979 
	C342.894958,199.416550 351.327606,185.775436 342.150482,172.685730 
	C345.204163,169.922760 348.111572,167.457611 351.018982,164.992462 
z"/>
<path fill="#E93490" opacity="1.000000" stroke="none" 
	d="
M367.997284,211.567307 
	C362.948761,217.673187 358.010620,223.366196 352.991394,228.986862 
	C344.066895,238.980774 335.093323,248.930878 325.762238,258.497864 
	C324.926575,252.397354 324.468964,246.698273 324.375854,240.995209 
	C326.359863,239.961075 328.225494,239.180008 329.560211,237.861526 
	C340.781860,226.776764 351.890656,215.577896 363.079651,204.459885 
	C364.470367,203.077988 366.131500,201.968246 367.667328,200.732407 
	C367.801941,204.195557 367.936523,207.658691 367.997284,211.567307 
z"/>
<path fill="#FF4D79" opacity="1.000000" stroke="none" 
	d="
M327.164856,149.535248 
	C324.293060,152.705551 321.039673,155.522888 317.989197,158.545074 
	C308.078156,168.364243 298.224884,178.242020 288.396484,188.143982 
	C287.139954,189.409912 286.161865,190.952225 284.644073,192.681671 
	C280.804138,191.728058 277.374878,190.459274 273.986511,188.834030 
	C275.111053,187.058807 276.053314,185.499557 277.300720,184.243317 
	C288.134674,173.332642 299.063538,162.515808 309.846619,151.555466 
	C311.243744,150.135391 311.972046,148.057327 313.010162,146.284058 
	C317.632141,147.281403 322.254150,148.278748 327.164856,149.535248 
z"/>
<path fill="#FF5675" opacity="1.000000" stroke="none" 
	d="
M312.553162,146.180054 
	C311.972046,148.057327 311.243744,150.135391 309.846619,151.555466 
	C299.063538,162.515808 288.134674,173.332642 277.300720,184.243317 
	C276.053314,185.499557 275.111053,187.058807 273.567261,188.822433 
	C269.026031,188.588776 264.944855,188.010239 260.916748,187.060699 
	C262.139130,185.133759 263.146545,183.417328 264.503723,182.047470 
	C274.632843,171.823730 284.877014,161.713547 294.954498,151.439651 
	C296.339783,150.027374 297.005066,147.908875 298.003693,146.117340 
	C302.701172,146.103577 307.398682,146.089813 312.553162,146.180054 
z"/>
<path fill="#FF5F71" opacity="1.000000" stroke="none" 
	d="
M297.543518,146.044510 
	C297.005066,147.908875 296.339783,150.027374 294.954498,151.439651 
	C284.877014,161.713547 274.632843,171.823730 264.503723,182.047470 
	C263.146545,183.417328 262.139130,185.133759 260.484283,187.007034 
	C255.332336,187.550720 250.665863,187.777069 246.003586,187.638016 
	C247.029999,185.656921 247.802002,183.794373 249.114014,182.464645 
	C259.570435,171.867142 270.153961,161.395111 280.625977,150.812866 
	C281.964752,149.460022 282.886230,147.694275 284.001007,146.119797 
	C288.361786,146.070419 292.722534,146.021057 297.543518,146.044510 
z"/>
<path fill="#F1328B" opacity="1.000000" stroke="none" 
	d="
M316.573761,222.146790 
	C318.316254,220.997498 320.305908,220.098358 321.762207,218.659409 
	C333.529999,207.031784 345.188080,195.293182 356.909241,183.618195 
	C358.181335,182.351120 359.641388,181.272781 361.332581,180.054016 
	C363.041199,183.425034 364.431519,186.848923 365.481567,190.681732 
	C362.658264,192.996399 359.945587,194.668655 357.731232,196.847412 
	C346.935486,207.469666 336.294159,218.248718 325.534271,228.907791 
	C324.288391,230.142014 322.646027,230.975998 321.005005,231.683121 
	C319.406311,228.296082 317.990021,225.221451 316.573761,222.146790 
z"/>
<path fill="#EF338C" opacity="1.000000" stroke="none" 
	d="
M321.187469,231.995514 
	C322.646027,230.975998 324.288391,230.142014 325.534271,228.907791 
	C336.294159,218.248718 346.935486,207.469666 357.731232,196.847412 
	C359.945587,194.668655 362.658264,192.996399 365.476501,191.045776 
	C366.426788,193.965408 367.041809,196.929932 367.662109,200.313416 
	C366.131500,201.968246 364.470367,203.077988 363.079651,204.459885 
	C351.890656,215.577896 340.781860,226.776764 329.560211,237.861526 
	C328.225494,239.180008 326.359863,239.961075 324.168121,240.688873 
	C322.793091,237.589523 321.990295,234.792511 321.187469,231.995514 
z"/>
<path fill="#FF656E" opacity="1.000000" stroke="none" 
	d="
M283.551270,146.047943 
	C282.886230,147.694275 281.964752,149.460022 280.625977,150.812866 
	C270.153961,161.395111 259.570435,171.867142 249.114014,182.464645 
	C247.802002,183.794373 247.029999,185.656921 245.633240,187.766785 
	C241.183182,189.212463 237.107681,190.163971 233.026489,190.743317 
	C234.025009,188.736359 234.762131,186.837769 236.075302,185.508118 
	C247.535156,173.904190 259.120911,162.424667 270.599915,150.839493 
	C271.947723,149.479233 272.876648,147.703949 273.999756,146.121063 
	C277.033691,146.072739 280.067627,146.024414 283.551270,146.047943 
z"/>
<path fill="#FF686D" opacity="1.000000" stroke="none" 
	d="
M273.575623,146.050140 
	C272.876648,147.703949 271.947723,149.479233 270.599915,150.839493 
	C259.120911,162.424667 247.535156,173.904190 236.075302,185.508118 
	C234.762131,186.837769 234.025009,188.736359 232.861511,191.047546 
	C229.146606,193.187637 225.591034,194.651337 222.035446,196.115021 
	C223.086563,194.513824 223.903625,192.680664 225.225037,191.347336 
	C238.386429,178.067032 251.654892,164.892838 264.815369,151.611618 
	C266.136230,150.278625 266.944702,148.437881 267.996765,146.476303 
	C269.718842,146.072952 271.435181,146.026077 273.575623,146.050140 
z"/>
<path fill="#FF3A7F" opacity="1.000000" stroke="none" 
	d="
M350.891022,164.681458 
	C348.111572,167.457611 345.204163,169.922760 341.839355,172.543228 
	C337.747925,168.826248 333.117310,167.615799 328.005585,167.690338 
	C329.371643,165.592026 330.605927,163.391083 332.139038,161.422897 
	C333.834106,159.246780 335.802826,157.283798 337.948792,155.040710 
	C342.417816,158.025787 346.590454,161.198120 350.891022,164.681458 
z"/>
<path fill="#FFFDFE" opacity="1.000000" stroke="none" 
	d="
M221.931915,196.437439 
	C225.591034,194.651337 229.146606,193.187637 232.867188,191.419708 
	C237.107681,190.163971 241.183182,189.212463 245.629044,188.132202 
	C250.665863,187.777069 255.332336,187.550720 260.431274,187.378036 
	C264.944855,188.010239 269.026031,188.588776 273.526428,189.178894 
	C277.374878,190.459274 280.804138,191.728058 284.607666,193.030228 
	C288.395630,195.066376 291.809265,197.069122 295.743591,199.445129 
	C299.837616,202.889114 303.410919,205.959885 306.984222,209.030640 
	C310.023682,213.256348 313.063110,217.482056 316.338135,221.927292 
	C317.990021,225.221451 319.406311,228.296082 321.005005,231.683121 
	C321.990295,234.792511 322.793091,237.589523 323.803650,240.692856 
	C324.468964,246.698273 324.926575,252.397354 325.451324,258.557831 
	C324.292969,265.723938 323.067474,272.428650 321.793884,279.530823 
	C313.597656,299.990265 300.011078,314.610718 279.169312,322.459106 
	C272.243805,323.895325 265.572662,325.098846 258.458405,326.410004 
	C251.614334,325.679871 245.213364,324.842072 238.405701,324.017151 
	C232.893402,321.741669 227.787811,319.453278 222.335083,317.106323 
	C216.884750,312.784973 211.781555,308.522186 206.380920,304.116455 
	C203.133240,299.852631 200.182999,295.731750 197.058548,291.308472 
	C194.860901,285.823517 192.837479,280.640930 190.634781,275.157654 
	C189.703613,269.512634 188.951706,264.168365 188.117645,258.411377 
	C189.138687,250.647568 190.241898,243.296402 191.457581,235.548889 
	C197.095825,218.760834 207.748352,206.409698 221.931915,196.437439 
M211.965195,246.802948 
	C211.654663,250.202103 211.344131,253.601273 210.879715,257.865143 
	C211.164627,260.611969 211.449524,263.358826 211.874344,266.868256 
	C213.193726,270.355469 214.513107,273.842651 215.948242,278.003326 
	C218.303970,281.325928 220.659698,284.648499 223.194794,288.625488 
	C229.252380,294.176819 235.784988,298.915405 244.763916,301.068909 
	C251.158569,301.385315 257.655212,302.586823 263.930084,301.863770 
	C290.031372,298.856049 308.585663,269.293182 299.802307,244.269608 
	C297.877075,236.101471 293.756012,229.271652 286.989197,223.243271 
	C283.022400,220.717255 279.055634,218.191254 274.570953,215.177322 
	C271.413574,214.241211 268.256226,213.305084 264.379150,212.087204 
	C261.966736,211.924515 259.554352,211.761826 256.461121,211.316620 
	C252.642075,211.900375 248.823029,212.484146 244.245697,213.023193 
	C227.503937,218.130112 216.630707,228.936600 211.965195,246.802948 
z"/>
<path fill="#FFFCFD" opacity="1.000000" stroke="none" 
	d="
M327.639313,167.805420 
	C333.117310,167.615799 337.747925,168.826248 341.693054,172.841034 
	C351.327606,185.775436 342.894958,199.416550 332.243958,200.246979 
	C328.150452,200.566147 323.857422,198.326462 319.174438,196.822174 
	C314.803558,192.412491 312.732391,187.742996 313.263611,182.085724 
	C315.237457,174.697678 319.353912,169.428665 327.639313,167.805420 
z"/>
<path fill="#FF3A7F" opacity="1.000000" stroke="none" 
	d="
M312.899475,182.085388 
	C312.732391,187.742996 314.803558,192.412491 318.843567,196.697159 
	C315.087311,200.810806 311.181061,204.618912 307.129517,208.728851 
	C303.410919,205.959885 299.837616,202.889114 296.082275,199.550858 
	C301.445251,193.550598 306.990265,187.817825 312.899475,182.085388 
z"/>
<path fill="#FA3385" opacity="1.000000" stroke="none" 
	d="
M243.995590,300.783051 
	C235.784988,298.915405 229.252380,294.176819 223.250610,288.001892 
	C243.970032,266.658295 264.630920,245.935638 285.311340,225.232452 
	C285.883209,224.659958 286.664429,224.296600 287.348022,223.835724 
	C293.756012,229.271652 297.877075,236.101471 299.577515,244.664429 
	C298.407898,245.700577 297.332001,246.210464 296.537476,247.002609 
	C279.680145,263.808746 262.844788,280.636932 246.049911,297.505432 
	C245.162766,298.396484 244.671265,299.681458 243.995590,300.783051 
z"/>
<path fill="#EF348D" opacity="1.000000" stroke="none" 
	d="
M244.379761,300.925964 
	C244.671265,299.681458 245.162766,298.396484 246.049911,297.505432 
	C262.844788,280.636932 279.680145,263.808746 296.537476,247.002609 
	C297.332001,246.210464 298.407898,245.700577 299.700745,245.023407 
	C308.585663,269.293182 290.031372,298.856049 263.930084,301.863770 
	C257.655212,302.586823 251.158569,301.385315 244.379761,300.925964 
z"/>
<path fill="#FF3A7F" opacity="1.000000" stroke="none" 
	d="
M287.168610,223.539505 
	C286.664429,224.296600 285.883209,224.659958 285.311340,225.232452 
	C264.630920,245.935638 243.970032,266.658295 223.160950,287.674683 
	C220.659698,284.648499 218.303970,281.325928 216.041443,277.337952 
	C234.627075,258.077820 253.138824,239.502182 271.574493,220.851318 
	C273.017700,219.391235 273.929871,217.406265 275.088837,215.665253 
	C279.055634,218.191254 283.022400,220.717255 287.168610,223.539505 
z"/>
<path fill="#FF437B" opacity="1.000000" stroke="none" 
	d="
M274.829895,215.421295 
	C273.929871,217.406265 273.017700,219.391235 271.574493,220.851318 
	C253.138824,239.502182 234.627075,258.077820 215.983582,277.001221 
	C214.513107,273.842651 213.193726,270.355469 212.137543,266.351593 
	C213.872009,264.784851 215.522507,263.914978 216.787247,262.657227 
	C232.067200,247.461792 247.313049,232.231766 262.483948,216.927643 
	C263.675720,215.725449 264.241913,213.903091 265.098846,212.368973 
	C268.256226,213.305084 271.413574,214.241211 274.829895,215.421295 
z"/>
<path fill="#FF4A79" opacity="1.000000" stroke="none" 
	d="
M264.739014,212.228088 
	C264.241913,213.903091 263.675720,215.725449 262.483948,216.927643 
	C247.313049,232.231766 232.067200,247.461792 216.787247,262.657227 
	C215.522507,263.914978 213.872009,264.784851 212.067581,265.970276 
	C211.449524,263.358826 211.164627,260.611969 211.319336,257.428314 
	C213.141327,256.192169 214.770935,255.642426 215.868332,254.555389 
	C228.486252,242.056671 241.052567,229.505264 253.543015,216.879242 
	C255.016327,215.389938 255.955276,213.372025 257.141937,211.599152 
	C259.554352,211.761826 261.966736,211.924515 264.739014,212.228088 
z"/>
<path fill="#FF4D79" opacity="1.000000" stroke="none" 
	d="
M256.801514,211.457886 
	C255.955276,213.372025 255.016327,215.389938 253.543015,216.879242 
	C241.052567,229.505264 228.486252,242.056671 215.868332,254.555389 
	C214.770935,255.642426 213.141327,256.192169 211.396271,256.995972 
	C211.344131,253.601273 211.654663,250.202103 212.423920,246.359650 
	C214.400269,244.965073 216.149948,244.250076 217.397949,243.024307 
	C225.638641,234.930557 233.830154,226.784058 241.884140,218.505356 
	C243.295700,217.054398 243.982468,214.898331 245.003967,213.067902 
	C248.823029,212.484146 252.642075,211.900375 256.801514,211.457886 
z"/>
<path fill="#FF5778" opacity="1.000000" stroke="none" 
	d="
M244.624832,213.045547 
	C243.982468,214.898331 243.295700,217.054398 241.884140,218.505356 
	C233.830154,226.784058 225.638641,234.930557 217.397949,243.024307 
	C216.149948,244.250076 214.400269,244.965073 212.546051,245.962799 
	C216.630707,228.936600 227.503937,218.130112 244.624832,213.045547 
z"/>
</svg>